<svg width="16" height="15" viewBox="0 0 16 15" fill="none" xmlns="http://www.w3.org/2000/svg">
<g clip-path="url(#clip0_1_3883)">
<path d="M14.9271 7.75632C14.9269 7.75649 14.9268 7.75669 14.9266 7.75686L11.9362 10.7328C11.7122 10.9557 11.3499 10.9549 11.1269 10.7308C10.9039 10.5068 10.9048 10.1445 11.1288 9.92149L13.1365 7.92351L1.01663 7.92351C0.70055 7.92351 0.444336 7.6673 0.444336 7.35122C0.444336 7.03515 0.70055 6.77893 1.01663 6.77893L13.1365 6.77894L11.1288 4.78096C10.9048 4.558 10.904 4.19565 11.1269 3.97163C11.3499 3.74755 11.7123 3.74678 11.9363 3.96968L14.9266 6.94559C14.9268 6.94576 14.9269 6.94596 14.9271 6.94613C15.1513 7.16984 15.1505 7.53336 14.9271 7.75632Z" fill="white"/>
</g>
<defs>
<clipPath id="clip0_1_3883">
<rect width="14.6506" height="14.6506" fill="white" transform="matrix(1 8.74228e-08 8.74228e-08 -1 0.444336 14.6763)"/>
</clipPath>
</defs>
</svg>
