<svg width="16" height="16" viewBox="0 0 16 16" fill="none" xmlns="http://www.w3.org/2000/svg">
<g clip-path="url(#clip0_1_3883)">
<path d="M0.603417 8.15868C0.603584 8.1585 0.603721 8.1583 0.603916 8.15812L3.50445 5.09463C3.72175 4.86514 4.08396 4.85519 4.31351 5.07252C4.54304 5.28981 4.55295 5.65202 4.33565 5.88155L2.38823 7.93833L14.5028 7.57802C14.8187 7.56863 15.0824 7.81711 15.0918 8.13305C15.1012 8.44898 14.8527 8.7127 14.5368 8.7221L2.42229 9.0824L4.48845 11.0198C4.719 11.236 4.73063 11.5982 4.51442 11.8287C4.29819 12.0593 3.936 12.0709 3.70548 11.8547L0.628005 8.96904C0.627828 8.96887 0.627679 8.96867 0.627474 8.96851C0.396785 8.75156 0.386694 8.38818 0.603417 8.15868Z" fill="white"/>
</g>
<defs>
<clipPath id="clip0_1_3883">
<rect width="14.6506" height="14.6506" fill="white" transform="matrix(-0.999558 0.0297281 0.0297281 0.999558 14.874 0.811035)"/>
</clipPath>
</defs>
</svg>
