<svg width="34" height="34" viewBox="0 0 34 34" fill="none" xmlns="http://www.w3.org/2000/svg">
<g clip-path="url(#clip0_1_3902)">
<path d="M24.7744 8.19049C24.774 8.19049 24.7736 8.19042 24.7731 8.19045L17.8622 8.22101C17.3445 8.22331 16.9265 8.64483 16.9288 9.16266C16.9311 9.68043 17.3526 10.0983 17.8704 10.096L22.5103 10.0755L8.49942 24.1427C8.13403 24.5095 8.13521 25.1031 8.50207 25.4685C8.86893 25.8339 9.4625 25.8327 9.8279 25.4659L23.8388 11.3987L23.8369 16.0386C23.8367 16.5564 24.2563 16.9763 24.774 16.9764C25.2919 16.9767 25.7117 16.557 25.7119 16.0393L25.7148 9.12828C25.7148 9.12788 25.7147 9.12748 25.7148 9.12705C25.7142 8.60829 25.2915 8.18889 24.7744 8.19049Z" fill="white"/>
</g>
<defs>
<clipPath id="clip0_1_3902">
<rect width="24" height="24" fill="white" transform="translate(0 17) rotate(-45.1148)"/>
</clipPath>
</defs>
</svg>
