<svg width="0" height="0" class="hidden">
  <symbol fill="none" xmlns="http://www.w3.org/2000/svg" viewBox="0 0 20 20" id="Instagram">
    <path d="M5.71429 0H14.2857C15.8012 0 17.2547 0.602039 18.3263 1.67368C19.398 2.74531 20 4.19876 20 5.71429V14.2857C20 15.8012 19.398 17.2547 18.3263 18.3263C17.2547 19.398 15.8012 20 14.2857 20H5.71429C4.19876 20 2.74531 19.398 1.67368 18.3263C0.602039 17.2547 0 15.8012 0 14.2857V5.71429C0 4.19876 0.602039 2.74531 1.67368 1.67368C2.74531 0.602039 4.19876 0 5.71429 0ZM10 14.2857C11.1366 14.2857 12.2267 13.8342 13.0305 13.0305C13.8342 12.2267 14.2857 11.1366 14.2857 10C14.2857 8.86336 13.8342 7.77327 13.0305 6.96954C12.2267 6.16582 11.1366 5.71429 10 5.71429C8.86336 5.71429 7.77327 6.16582 6.96954 6.96954C6.16582 7.77327 5.71429 8.86336 5.71429 10C5.71429 11.1366 6.16582 12.2267 6.96954 13.0305C7.77327 13.8342 8.86336 14.2857 10 14.2857ZM14.92 6.34857C15.0903 6.35428 15.2599 6.32568 15.4189 6.26447C15.5779 6.20325 15.723 6.11067 15.8454 5.99224C15.9679 5.87382 16.0653 5.73196 16.1318 5.57511C16.1983 5.41827 16.2326 5.24965 16.2326 5.07929C16.2326 4.90892 16.1983 4.7403 16.1318 4.58346C16.0653 4.42661 15.9679 4.28476 15.8454 4.16633C15.723 4.0479 15.5779 3.95532 15.4189 3.89411C15.2599 3.83289 15.0903 3.80429 14.92 3.81C14.5907 3.82105 14.2786 3.95961 14.0496 4.19645C13.8206 4.43328 13.6926 4.74984 13.6926 5.07929C13.6926 5.40874 13.8206 5.7253 14.0496 5.96213C14.2786 6.19896 14.5907 6.33752 14.92 6.34857Z" fill="#ffffff"></path>
  </symbol>
  
  <symbol fill="none" xmlns="http://www.w3.org/2000/svg" viewBox="0 0 19 20" id="Facebook">
    <path d="M14.3098 0H11.7209C8.57656 0 6.54594 1.98843 6.54594 5.06678V7.03521H3.94016C3.69688 7.03521 3.5 7.22377 3.5 7.45661V10.8421C3.5 11.0749 3.69688 11.2621 3.94016 11.2621H6.54594V19.58C6.54594 19.8114 6.74281 20 6.98469 20H10.655C10.8997 20 11.0966 19.8114 11.0966 19.58V11.2606H14.3084C14.5517 11.2606 14.7486 11.0735 14.7486 10.8407L14.75 7.45661C14.7494 7.40097 14.7376 7.34604 14.7154 7.2952C14.6931 7.24435 14.6609 7.19866 14.6206 7.16092C14.5363 7.0809 14.4252 7.03647 14.3098 7.03664H11.0966V5.42247C11.0966 4.47111 11.3342 3.98829 12.6336 3.98829L14.3098 3.98257C14.5517 3.98257 14.7486 3.79544 14.7486 3.5626V0.41997C14.75 0.188558 14.5531 0 14.3098 0Z" fill="#ffffff"></path>
  </symbol>

  <symbol fill="none" xmlns="http://www.w3.org/2000/svg" viewBox="0 0 168 38" id="logo">
    <g clip-path="url(#clip0_1_3913)">
      <path d="M66.6074 14.0003V0.729492H70.3535C71.508 0.729492 72.5289 0.984697 73.416 1.49512C74.3032 2.00553 74.9868 2.73166 75.4668 3.67351C75.9529 4.61534 76.199 5.69694 76.2051 6.91829V7.76595C76.2051 9.01772 75.962 10.1145 75.4759 11.0563C74.9959 11.9982 74.3062 12.7213 73.4069 13.2256C72.5137 13.7299 71.4716 13.9882 70.2806 14.0003H66.6074ZM68.3574 2.16959V12.5694H70.1986C71.5475 12.5694 72.5957 12.1501 73.3431 11.3115C74.0966 10.4729 74.4733 9.27898 74.4733 7.72949V6.95476C74.4733 5.44781 74.1178 4.2781 73.4069 3.44564C72.702 2.60709 71.6994 2.18175 70.3991 2.16959H68.3574ZM83.7246 8.63187H80.6074V14.0003H78.8483V0.729492H83.2416C84.7363 0.729492 85.8848 1.06977 86.6869 1.75033C87.495 2.43088 87.8991 3.42133 87.8991 4.72168C87.8991 5.54807 87.6743 6.26812 87.2246 6.88184C86.7811 7.49555 86.1613 7.95435 85.3652 8.25815L88.4824 13.891V14.0003H86.6048L83.7246 8.63187ZM80.6074 7.20084H83.2962C84.1652 7.20084 84.8548 6.97602 85.3652 6.52636C85.8817 6.07671 86.14 5.47515 86.14 4.72168C86.14 3.90136 85.8939 3.27246 85.4017 2.83496C84.9156 2.39746 84.2108 2.17568 83.2871 2.16959H80.6074V7.20084ZM97.8613 7.86623H92.11V12.5694H98.791V14.0003H90.36V0.729492H98.6999V2.16959H92.11V6.43522H97.8613V7.86623ZM108.298 10.5368H102.738L101.489 14.0003H99.6843L104.752 0.729492H106.283L111.36 14.0003H109.564L108.298 10.5368ZM103.266 9.09667H107.778L105.518 2.88965L103.266 9.09667ZM115.407 0.729492L119.745 11.5576L124.084 0.729492H126.354V14.0003H124.604V8.83238L124.768 3.25423L120.411 14.0003H119.071L114.723 3.28158L114.896 8.83238V14.0003H113.146V0.729492H115.407ZM132.816 7.82975L131.193 9.51597V14.0003H129.443V0.729492H131.193V7.29199L137.09 0.729492H139.205L133.982 6.59017L139.615 14.0003H137.519L132.816 7.82975ZM148.475 10.5368H142.915L141.666 14.0003H139.861L144.929 0.729492H146.46L151.537 14.0003H149.742L148.475 10.5368ZM143.443 9.09667H147.955L145.695 2.88965L143.443 9.09667ZM155.584 0.729492L159.923 11.5576L164.261 0.729492H166.531V14.0003H164.781V8.83238L164.945 3.25423L160.588 14.0003H159.248L154.901 3.28158L155.073 8.83238V14.0003H153.323V0.729492H155.584Z" fill="#275553"></path>
      <path d="M77.0404 24.1781H72.7748V36.0088H71.0339V24.1781H66.7773V22.738H77.0404V24.1781ZM88.9623 29.8018C88.9623 31.1021 88.7435 32.2384 88.306 33.2106C87.8685 34.1768 87.2488 34.9151 86.4466 35.4255C85.6446 35.9359 84.7088 36.1911 83.6393 36.1911C82.5942 36.1911 81.6676 35.9359 80.8594 35.4255C80.0513 34.909 79.4224 34.1768 78.9727 33.2289C78.5291 32.2749 78.3013 31.172 78.2891 29.9203V28.9632C78.2891 27.6872 78.5109 26.5601 78.9545 25.5818C79.398 24.6034 80.0239 23.856 80.8321 23.3395C81.6463 22.817 82.576 22.5557 83.6211 22.5557C84.6845 22.5557 85.6203 22.814 86.4284 23.3304C87.2426 23.8409 87.8685 24.5852 88.306 25.5635C88.7435 26.5357 88.9623 27.6689 88.9623 28.9632V29.8018ZM87.2214 28.945C87.2214 27.3712 86.9054 26.1651 86.2735 25.3265C85.6415 24.4819 84.7574 24.0596 83.6211 24.0596C82.5152 24.0596 81.6432 24.4819 81.0052 25.3265C80.3733 26.1651 80.0482 27.3318 80.03 28.8265V29.8018C80.03 31.327 80.349 32.527 80.987 33.402C81.6311 34.2709 82.5152 34.7054 83.6393 34.7054C84.7696 34.7054 85.6446 34.2953 86.2643 33.475C86.8841 32.6486 87.2032 31.4667 87.2214 29.9294V28.945ZM100.93 22.738V31.7614C100.924 33.0131 100.529 34.037 99.7449 34.833C98.9671 35.629 97.9098 36.0756 96.5729 36.1728L96.1081 36.1911C94.6559 36.1911 93.4983 35.7992 92.6354 35.0154C91.7726 34.2314 91.3351 33.1529 91.3229 31.7796V22.738H93.0547V31.725C93.0547 32.6851 93.319 33.4324 93.8477 33.9671C94.3763 34.4958 95.1298 34.7601 96.1081 34.7601C97.0985 34.7601 97.8551 34.4958 98.3776 33.9671C98.9062 33.4385 99.1706 32.6942 99.1706 31.7341V22.738H100.93ZM108.559 30.6404H105.441V36.0088H103.682V22.738H108.076C109.57 22.738 110.719 23.0783 111.521 23.7588C112.329 24.4394 112.733 25.4298 112.733 26.7302C112.733 27.5565 112.508 28.2766 112.059 28.8904C111.615 29.504 110.995 29.9628 110.199 30.2666L113.316 35.8995V36.0088H111.439L108.559 30.6404ZM105.441 29.2093H108.13C108.999 29.2093 109.689 28.9845 110.199 28.5348C110.716 28.0852 110.974 27.4837 110.974 26.7302C110.974 25.9098 110.728 25.2809 110.236 24.8434C109.75 24.4059 109.045 24.1842 108.121 24.1781H105.441V29.2093Z" fill="#275553"></path>
    </g>
    <g clip-path="url(#clip1_1_3913)">
      <path fill-rule="evenodd" clip-rule="evenodd" d="M0.607422 31.8498V2.02042C0.607422 0.904576 1.51337 0 2.63091 0H17.5682C19.0724 0 20.0508 1.5806 19.3781 2.92399L4.44077 32.7534C3.48586 34.6603 0.607422 33.9818 0.607422 31.8498ZM50.3852 31.8498V2.02042C50.3852 0.904576 49.4791 0 48.3617 0H33.4244C31.9202 0 30.9418 1.5806 31.6145 2.92399L46.5519 32.7534C47.5066 34.6603 50.3852 33.9818 50.3852 31.8498ZM26.5081 35.1554V5.32596C26.5081 3.19398 29.3865 2.51549 30.3414 4.42243L45.2787 34.2518C45.9513 35.5952 44.9732 37.1758 43.4689 37.1758H28.5315C27.414 37.1758 26.5081 36.2712 26.5081 35.1554ZM24.4846 5.32596V35.1554C24.4846 36.2712 23.5786 37.1758 22.4611 37.1758H7.52378C6.01956 37.1758 5.04121 35.5952 5.71389 34.2518L20.6512 4.42243C21.6061 2.51549 24.4846 3.19398 24.4846 5.32596Z" fill="#275553"></path>
    </g>
    <defs>
      <clipPath id="clip0_1_3913">
        <rect width="101.111" height="36.5556" fill="white" transform="translate(66)"></rect>
      </clipPath>
      <clipPath id="clip1_1_3913">
        <rect width="49.7778" height="37.1758" fill="white"></rect>
      </clipPath>
    </defs>
  </symbol>

  <symbol fill="none" xmlns="http://www.w3.org/2000/svg" viewBox="0 0 16 15" id="next-arrow">
    <g clip-path="url(#clip0_1_3883)">
      <path d="M14.9271 7.75632C14.9269 7.75649 14.9268 7.75669 14.9266 7.75686L11.9362 10.7328C11.7122 10.9557 11.3499 10.9549 11.1269 10.7308C10.9039 10.5068 10.9048 10.1445 11.1288 9.92149L13.1365 7.92351L1.01663 7.92351C0.70055 7.92351 0.444336 7.6673 0.444336 7.35122C0.444336 7.03515 0.70055 6.77893 1.01663 6.77893L13.1365 6.77894L11.1288 4.78096C10.9048 4.558 10.904 4.19565 11.1269 3.97163C11.3499 3.74755 11.7123 3.74678 11.9363 3.96968L14.9266 6.94559C14.9268 6.94576 14.9269 6.94596 14.9271 6.94613C15.1513 7.16984 15.1505 7.53336 14.9271 7.75632Z" fill="white"></path>
    </g>
    <defs>
      <clipPath id="clip0_1_3883">
        <rect width="14.6506" height="14.6506" fill="white" transform="matrix(1 8.74228e-08 8.74228e-08 -1 0.444336 14.6763)"></rect>
      </clipPath>
    </defs>
  </symbol>

  <symbol fill="none" xmlns="http://www.w3.org/2000/svg" viewBox="0 0 16 16" id="prew-arrow">
    <g clip-path="url(#clip0_1_3883)">
      <path d="M0.603417 8.15868C0.603584 8.1585 0.603721 8.1583 0.603916 8.15812L3.50445 5.09463C3.72175 4.86514 4.08396 4.85519 4.31351 5.07252C4.54304 5.28981 4.55295 5.65202 4.33565 5.88155L2.38823 7.93833L14.5028 7.57802C14.8187 7.56863 15.0824 7.81711 15.0918 8.13305C15.1012 8.44898 14.8527 8.7127 14.5368 8.7221L2.42229 9.0824L4.48845 11.0198C4.719 11.236 4.73063 11.5982 4.51442 11.8287C4.29819 12.0593 3.936 12.0709 3.70548 11.8547L0.628005 8.96904C0.627828 8.96887 0.627679 8.96867 0.627474 8.96851C0.396785 8.75156 0.386694 8.38818 0.603417 8.15868Z" fill="white"></path>
    </g>
    <defs>
      <clipPath id="clip0_1_3883">
        <rect width="14.6506" height="14.6506" fill="white" transform="matrix(-0.999558 0.0297281 0.0297281 0.999558 14.874 0.811035)"></rect>
      </clipPath>
    </defs>
  </symbol>
  
  <symbol fill="none" xmlns="http://www.w3.org/2000/svg" viewBox="0 0 34 34" id="right-arrow">
    <g clip-path="url(#clip0_1_3902)">
      <path d="M24.7744 8.19049C24.774 8.19049 24.7736 8.19042 24.7731 8.19045L17.8622 8.22101C17.3445 8.22331 16.9265 8.64483 16.9288 9.16266C16.9311 9.68043 17.3526 10.0983 17.8704 10.096L22.5103 10.0755L8.49942 24.1427C8.13403 24.5095 8.13521 25.1031 8.50207 25.4685C8.86893 25.8339 9.4625 25.8327 9.8279 25.4659L23.8388 11.3987L23.8369 16.0386C23.8367 16.5564 24.2563 16.9763 24.774 16.9764C25.2919 16.9767 25.7117 16.557 25.7119 16.0393L25.7148 9.12828C25.7148 9.12788 25.7147 9.12748 25.7148 9.12705C25.7142 8.60829 25.2915 8.18889 24.7744 8.19049Z" fill="white"></path>
    </g>
    <defs>
      <clipPath id="clip0_1_3902">
        <rect width="24" height="24" fill="white" transform="translate(0 17) rotate(-45.1148)"></rect>
      </clipPath>
    </defs>
  </symbol>
</svg>