<svg width="579" height="6889" viewBox="0 0 579 6889" fill="none" xmlns="http://www.w3.org/2000/svg">
<path d="M21.7384 1C14.9553 9.5 1.31213 32.4 1.00497 56C0.69781 79.6 14.6993 122.5 21.7384 141C28.2657 161.5 40.5524 212.5 37.4808 252.5C34.4091 292.5 21.3548 435.5 15.2115 502C14.6996 520.667 19.5118 571.3 42.8561 624.5C66.2004 677.7 26.7248 820.5 13.2917 891C10.2201 908.833 7.45566 957.1 20.9708 1007.5C34.4859 1057.9 34.5371 1123.5 32.8733 1150C29.9297 1176.5 37.4808 1249.5 91.2342 1329.5C144.988 1409.5 220.37 1478.5 251.343 1503C285.898 1520 359.464 1568 377.279 1624C395.094 1680 367.04 1765.67 350.786 1801.5C351.682 1841.5 372.364 1936.5 447.926 1996.5C523.488 2056.5 555.177 2126.83 561.576 2154.5C565.8 2185.5 550.226 2265.34 561.576 2359C571.938 2444.5 555.812 2541 541.227 2541C504.367 2541 560.035 2689 504.367 2718.5C459.16 2742.46 455.6 2900.5 435.635 2952C361.916 3091 234.986 2918.3 174.168 2893.5C113.35 2868.7 59.75 2954.5 40.5524 3000.5C31.7215 3051.83 1.19246 3175.04 12.9078 3249.5C25.573 3330 17.126 3390.5 31.3375 3399C48.9941 3433.5 29.9665 3517.03 14.8223 3561.5C-3.22873 3614.5 13.0358 3707.5 31.3375 3736.5C37.6088 3741.67 13.2005 3820.34 7.91115 3832.5C-5.14325 3862.5 63.5843 3872 87.0054 3902C94.6845 3942 194.973 3945.2 258.248 3902C321.524 3858.8 346.558 3889.67 354.237 3889.5C375.738 3889.67 417.358 3768 439.474 3812C461.59 3856 513.07 3837.17 522.797 3830C541.355 3826 575.706 3839.9 564.648 3927.5C553.59 4015.1 561.187 4064 566.563 4085C572.534 4108.33 592.907 4156.8 558.505 4208C524.103 4259.2 517.55 4319.67 518.574 4343.5C518.83 4364 506.134 4404.1 453.302 4400.5C400.47 4396.9 347.843 4380.33 328.133 4372.5C312.007 4369.83 270.003 4375.7 230.993 4420.5C191.983 4465.3 133.085 4462.17 108.512 4455C92.77 4449 57.6767 4447.5 43.2401 4489.5C28.8034 4531.5 21.0988 4623.33 19.051 4664C18.6671 4670 20.4333 4688.9 30.5696 4716.5C40.706 4744.1 25.9569 4796 20.5816 4815.5C11.3667 4846.83 -11.9776 4917.2 12.9025 4968C37.7827 5018.8 31.3323 5077 27.4927 5100.5C22.3734 5118 29.4946 5162.5 8.30035 5198.5C-12.8938 5234.5 20.2029 5328.83 39.4005 5371.5C41.5763 5392.5 42.165 5442.1 27.114 5472.5C12.0631 5502.9 12.1346 5609 22.5014 5660C24.6771 5689.17 8.26605 5772.94 27.114 5854C47.4583 5941.5 24.0372 6044.5 12.1346 6118C-18.1976 6234 214.171 6292.7 242.122 6355.5C270.074 6418.3 395.453 6376.17 403.388 6394.5C410.427 6407.67 432.108 6436.1 462.517 6444.5C492.926 6452.9 458.416 6590.83 472.878 6603C474.414 6624.67 464.585 6668.2 412.981 6669C348.477 6670 320.449 6685 322.369 6697C324.288 6709 375.738 6705.5 367.291 6728.5C358.844 6751.5 284.741 6776 284.741 6795.5C284.741 6811.1 304.707 6827.33 314.689 6833.5C320.065 6836 329.587 6850.4 324.672 6888" stroke="#6C6C6C" stroke-width="2" stroke-dasharray="3 8"/>
</svg>
